<svg width="45" height="39" viewBox="0 0 45 39" fill="none" xmlns="http://www.w3.org/2000/svg">
<path d="M32.625 0C28.71 0 24.9525 1.72153 22.5 4.44196C20.0475 1.72153 16.29 0 12.375 0C5.445 0 0 5.14332 0 11.6894C0 19.7232 7.65 26.2692 19.2375 36.2158L22.5 39L25.7625 36.1945C37.35 26.2692 45 19.7232 45 11.6894C45 5.14332 39.555 0 32.625 0ZM22.725 33.049L22.5 33.2616L22.275 33.049C11.565 23.8888 4.5 17.8316 4.5 11.6894C4.5 7.43869 7.875 4.25068 12.375 4.25068C15.84 4.25068 19.215 6.35477 20.4075 9.26648H24.615C25.785 6.35477 29.16 4.25068 32.625 4.25068C37.125 4.25068 40.5 7.43869 40.5 11.6894C40.5 17.8316 33.435 23.8888 22.725 33.049Z" fill="#F8ACE7"/>
</svg>
