<svg width="35" height="31" viewBox="0 0 35 31" fill="none" xmlns="http://www.w3.org/2000/svg">
<path  d="M25.0143 19.4969H23.4334L22.8731 19.0183C24.8342 16.9977 26.0149 14.3745 26.0149 11.5209C26.0149 5.1578 20.1915 0 13.0074 0C5.82333 0 0 5.1578 0 11.5209C0 17.8839 5.82333 23.0417 13.0074 23.0417C16.2293 23.0417 19.191 21.996 21.4723 20.259L22.0126 20.7553V22.1555L32.0183 31L35 28.3591L25.0143 19.4969ZM13.0074 19.4969C8.02458 19.4969 4.00229 15.9342 4.00229 11.5209C4.00229 7.10749 8.02458 3.54488 13.0074 3.54488C17.9903 3.54488 22.0126 7.10749 22.0126 11.5209C22.0126 15.9342 17.9903 19.4969 13.0074 19.4969Z" fill="#F8ACE7"/>
</svg>
