<svg width="61" height="50" viewBox="0 0 61 50" fill="none" xmlns="http://www.w3.org/2000/svg">
<g clip-path="url(#clip0_10_51)">
<path d="M45.75 12.5H40.6667C40.6667 7.89582 36.1171 4.16666 30.5 4.16666C24.8829 4.16666 20.3334 7.89582 20.3334 12.5H15.25C12.4542 12.5 10.1667 14.375 10.1667 16.6667V41.6667C10.1667 43.9583 12.4542 45.8333 15.25 45.8333H45.75C48.5459 45.8333 50.8334 43.9583 50.8334 41.6667V16.6667C50.8334 14.375 48.5459 12.5 45.75 12.5ZM30.5 8.33332C33.2959 8.33332 35.5834 10.2083 35.5834 12.5H25.4167C25.4167 10.2083 27.7042 8.33332 30.5 8.33332ZM45.75 41.6667H15.25V16.6667H20.3334V20.8333C20.3334 21.9792 21.4771 22.9167 22.875 22.9167C24.2729 22.9167 25.4167 21.9792 25.4167 20.8333V16.6667H35.5834V20.8333C35.5834 21.9792 36.7271 22.9167 38.125 22.9167C39.5229 22.9167 40.6667 21.9792 40.6667 20.8333V16.6667H45.75V41.6667Z" fill="#F8ACE7"/>
</g>
<defs>
<clipPath id="clip0_10_51">
<rect width="61" height="50" fill="white"/>
</clipPath>
</defs>
</svg>
